<?xml version="1.0" encoding="iso-8859-1"?>
<!-- Generator: Adobe Illustrator 19.0.0, SVG Export Plug-In . SVG Version: 6.00 Build 0)  -->
<svg xmlns="http://www.w3.org/2000/svg" xmlns:xlink="http://www.w3.org/1999/xlink" version="1.1" id="Capa_1" x="0px" y="0px" viewBox="0 0 512 512" style="enable-background:new 0 0 512 512;" xml:space="preserve" width="512px" height="512px">
<g>
	<g>
		<path d="M494.772,403.788H483.34l-77.376-122.316c-2.213-3.5-6.847-4.542-10.349-2.329c-3.5,2.214-4.543,6.847-2.328,10.349    l72.302,114.296H140.086c2.207-3.488,159.53-252.183,161.988-256.069c0.363-0.568,1.165-0.568,1.527,0l70.969,112.186    c2.214,3.501,6.848,4.544,10.349,2.329c3.5-2.214,4.543-6.848,2.328-10.349l-70.968-112.186c-1.503-2.375-3.557-4.255-5.939-5.528    v-8.392h40.665c7.471,0,11.814-8.44,7.517-14.517l-10.288-14.557l11.034-15.614c3.993-5.648-0.056-13.46-6.97-13.46h-42.444    c-1.067-2.841-3.801-4.866-7.015-4.866c-4.143,0-7.5,3.358-7.5,7.5c0,6.303,0,57.37,0,63.904    c-2.382,1.273-4.437,3.153-5.939,5.528l-74.747,118.158l-33.876-53.551c-2.607-4.121-7.075-6.582-11.952-6.582    c-4.876,0-9.345,2.46-11.951,6.581L30.681,403.788H17.227C7.728,403.788,0,411.515,0,421.014v10.995    c0,9.499,7.728,17.227,17.227,17.227h221.272c4.142,0,7.5-3.358,7.5-7.5c0-4.142-3.358-7.5-7.5-7.5H17.227    c-1.207,0-2.226-1.019-2.226-2.226v-10.995c0-1.207,1.019-2.226,2.226-2.226c5,0,473.237,0,477.546,0    c1.207,0,2.227,1.019,2.227,2.226v10.995c0,1.207-1.02,2.226-2.227,2.226H273.501c-4.143,0-7.5,3.358-7.5,7.5    c0,4.142,3.357,7.5,7.5,7.5h221.271c9.5,0,17.228-7.728,17.228-17.227v-10.995C512,411.515,504.272,403.788,494.772,403.788z     M310.339,82.631h29.472l-4.994,7.066c-2.963,4.191-2.963,9.823-0.001,14.012l4.995,7.068h-29.472V82.631z M48.431,403.788    l120.394-190.317l36.952,58.414l-83.442,131.903H48.431z" fill="#83040b"/>
	</g>
</g>
<g>
</g>
<g>
</g>
<g>
</g>
<g>
</g>
<g>
</g>
<g>
</g>
<g>
</g>
<g>
</g>
<g>
</g>
<g>
</g>
<g>
</g>
<g>
</g>
<g>
</g>
<g>
</g>
<g>
</g>
</svg>
